<svg width="30" height="30" viewBox="0 0 30 30" fill="none" xmlns="http://www.w3.org/2000/svg">
<path d="M22.875 7.13729C22.7593 7.02141 22.622 6.92948 22.4707 6.86675C22.3195 6.80402 22.1574 6.77174 21.9937 6.77174C21.83 6.77174 21.6679 6.80402 21.5167 6.86675C21.3655 6.92948 21.2281 7.02141 21.1125 7.13729L15 13.2373L8.88747 7.12479C8.77175 7.00906 8.63436 6.91726 8.48315 6.85463C8.33195 6.792 8.16989 6.75977 8.00622 6.75977C7.84256 6.75977 7.6805 6.792 7.52929 6.85463C7.37809 6.91726 7.2407 7.00906 7.12497 7.12479C7.00925 7.24052 6.91745 7.37791 6.85482 7.52911C6.79218 7.68032 6.75995 7.84238 6.75995 8.00604C6.75995 8.1697 6.79218 8.33177 6.85482 8.48297C6.91745 8.63418 7.00925 8.77156 7.12497 8.88729L13.2375 14.9998L7.12497 21.1123C7.00925 21.228 6.91745 21.3654 6.85482 21.5166C6.79218 21.6678 6.75995 21.8299 6.75995 21.9935C6.75995 22.1572 6.79218 22.3193 6.85482 22.4705C6.91745 22.6217 7.00925 22.7591 7.12497 22.8748C7.2407 22.9905 7.37809 23.0823 7.52929 23.1449C7.6805 23.2076 7.84256 23.2398 8.00622 23.2398C8.16989 23.2398 8.33195 23.2076 8.48315 23.1449C8.63436 23.0823 8.77175 22.9905 8.88747 22.8748L15 16.7623L21.1125 22.8748C21.2282 22.9905 21.3656 23.0823 21.5168 23.1449C21.668 23.2076 21.8301 23.2398 21.9937 23.2398C22.1574 23.2398 22.3194 23.2076 22.4706 23.1449C22.6219 23.0823 22.7592 22.9905 22.875 22.8748C22.9907 22.7591 23.0825 22.6217 23.1451 22.4705C23.2078 22.3193 23.24 22.1572 23.24 21.9935C23.24 21.8299 23.2078 21.6678 23.1451 21.5166C23.0825 21.3654 22.9907 21.228 22.875 21.1123L16.7625 14.9998L22.875 8.88729C23.35 8.41229 23.35 7.61229 22.875 7.13729V7.13729Z" fill="white"/>
</svg>
